<svg version="1.1" viewBox="0.0 0.0 930.0 298.5196850393701" fill="none" stroke="none" stroke-linecap="square" stroke-miterlimit="10" xmlns:xlink="http://www.w3.org/1999/xlink" xmlns="http://www.w3.org/2000/svg"><clipPath id="p.0"><path d="m0 0l930.0 0l0 298.51968l-930.0 0l0 -298.51968z" clip-rule="nonzero"/></clipPath><g clip-path="url(#p.0)"><path fill="#000000" fill-opacity="0.0" d="m0 0l930.0 0l0 298.51968l-930.0 0z" fill-rule="evenodd"/><path fill="#ffffff" d="m25.879265 5.2440944l288.0 0l0 288.0l-288.0 0z" fill-rule="evenodd"/><path stroke="#000000" stroke-width="2.0" stroke-linejoin="round" stroke-linecap="butt" d="m25.879265 5.2440944l288.0 0l0 288.0l-288.0 0z" fill-rule="evenodd"/><g filter="url(#shadowFilter-p.1)"><use xlink:href="#p.1" transform="matrix(1.0 0.0 0.0 1.0 0.0 2.0)"/></g><defs><filter id="shadowFilter-p.1" filterUnits="userSpaceOnUse"><feGaussianBlur in="SourceAlpha" stdDeviation="2.0" result="blur"/><feComponentTransfer in="blur" color-interpolation-filters="sRGB"><feFuncR type="linear" slope="0" intercept="0.0"/><feFuncG type="linear" slope="0" intercept="0.0"/><feFuncB type="linear" slope="0" intercept="0.0"/><feFuncA type="linear" slope="0.5" intercept="0"/></feComponentTransfer></filter></defs><g id="p.1"><path fill="#ffffff" d="m73.879265 53.244095l192.0 0l0 192.0l-192.0 0z" fill-rule="evenodd"/><path stroke="#000000" stroke-width="2.0" stroke-linejoin="round" stroke-linecap="butt" d="m73.879265 53.244095l192.0 0l0 192.0l-192.0 0z" fill-rule="evenodd"/></g><path fill="#000000" fill-opacity="0.0" d="m169.87927 5.2440944l0 48.0" fill-rule="evenodd"/><path stroke="#000000" stroke-width="2.0" stroke-linejoin="round" stroke-linecap="butt" d="m169.87927 5.2440944l0 48.0" fill-rule="evenodd"/><path fill="#000000" fill-opacity="0.0" d="m265.87927 149.2441l48.0 0" fill-rule="evenodd"/><path stroke="#000000" stroke-width="2.0" stroke-linejoin="round" stroke-linecap="butt" d="m265.87927 149.2441l48.0 0" fill-rule="evenodd"/><path fill="#000000" fill-opacity="0.0" d="m73.879265 149.2441l-48.0 0" fill-rule="evenodd"/><path stroke="#000000" stroke-width="2.0" stroke-linejoin="round" stroke-linecap="butt" d="m73.879265 149.2441l-48.0 0" fill-rule="evenodd"/><path fill="#000000" fill-opacity="0.0" d="m169.87927 245.2441l0 47.999985" fill-rule="evenodd"/><path stroke="#000000" stroke-width="2.0" stroke-linejoin="round" stroke-linecap="butt" d="m169.87927 245.2441l0 47.999985" fill-rule="evenodd"/><path fill="#ffffff" d="m336.0 293.24408l150.18625 -288.0l137.81375 288.0z" fill-rule="evenodd"/><path stroke="#000000" stroke-width="2.0" stroke-linejoin="round" stroke-linecap="butt" d="m336.0 293.24408l150.18625 -288.0l137.81375 288.0z" fill-rule="evenodd"/><path fill="#ffffff" d="m624.0 149.2441l0 0c0 -79.52901 64.47101 -144.0 144.0 -144.0l0 0c38.191162 0 74.818115 15.171385 101.823364 42.176624c27.005249 27.005238 42.176636 63.6322 42.176636 101.82338l0 0c0 79.52901 -64.47101 143.99998 -144.0 143.99998l0 0c-79.52899 0 -144.0 -64.47098 -144.0 -143.99998z" fill-rule="evenodd"/><path stroke="#000000" stroke-width="2.0" stroke-linejoin="round" stroke-linecap="butt" d="m624.0 149.2441l0 0c0 -79.52901 64.47101 -144.0 144.0 -144.0l0 0c38.191162 0 74.818115 15.171385 101.823364 42.176624c27.005249 27.005238 42.176636 63.6322 42.176636 101.82338l0 0c0 79.52901 -64.47101 143.99998 -144.0 143.99998l0 0c-79.52899 0 -144.0 -64.47098 -144.0 -143.99998z" fill-rule="evenodd"/><path fill="#000000" fill-opacity="0.0" d="m768.0 5.2440944l0 288.0" fill-rule="evenodd"/><path stroke="#000000" stroke-width="2.0" stroke-linejoin="round" stroke-linecap="butt" d="m768.0 5.2440944l0 288.0" fill-rule="evenodd"/></g></svg>